<?xml version="1.0" standalone="no"?>
<!DOCTYPE svg PUBLIC "-//W3C//DTD SVG 1.1//EN" "http://www.w3.org/Graphics/SVG/1.1/DTD/svg11.dtd" >
<svg xmlns="http://www.w3.org/2000/svg">
<metadata>Generated by IcoMoon</metadata>
<defs>
<font id="icomoon" horiz-adv-x="1024">
<font-face units-per-em="1024" ascent="960" descent="-64" />
<missing-glyph horiz-adv-x="1024" />
<glyph unicode="&#x20;" horiz-adv-x="512" d="" />
<glyph unicode="&#xe900;" d="M463.981 426.351c-6.478 13.052-19.904 22.046-35.464 22.046-5.53 0-10.794-1.138-15.576-3.186-6.286 13.562-19.986 22.994-35.92 22.994s-29.634-9.432-35.922-22.994c-4.782 2.048-10.044 3.186-15.574 3.186-15.56 0-28.988-8.994-35.464-22.046-60.712-11.282-106.694-64.494-106.694-128.474 0-72.192 58.522-130.716 130.716-130.716h125.872c72.192 0 130.714 58.522 130.714 130.716 0.004 63.98-45.976 117.192-106.688 128.474z" />
<glyph unicode="&#xe901;" d="M505.273 209.765h-125.872c-72.192 0-130.716 58.522-130.716 130.716 0 31.62 11.246 60.6 29.934 83.196-54.954-15.456-95.248-65.908-95.248-125.802 0-72.192 58.522-130.716 130.716-130.716h125.872c40.59 0 76.856 18.5 100.832 47.528-11.3-3.182-23.202-4.922-35.518-4.922z" />
<glyph unicode="&#xe902;" d="M335.163 385.631c-4.010 0-8.022 1.53-11.084 4.592l-7.134 7.134c-6.122 6.12-6.118 16.046 0.002 22.164 6.122 6.122 16.046 6.122 22.164-0.002l7.134-7.136c6.122-6.12 6.118-16.046-0.002-22.164-3.058-3.058-7.070-4.588-11.080-4.588z" />
<glyph unicode="&#xe903;" d="M420.969 386.587c-4.010 0-8.022 1.53-11.082 4.592-6.122 6.12-6.122 16.046 0 22.164l6.502 6.502c6.122 6.122 16.046 6.122 22.164 0 6.122-6.12 6.122-16.046 0-22.164l-6.502-6.502c-3.060-3.064-7.072-4.592-11.082-4.592z" />
<glyph unicode="&#xe904;" d="M378.203 393.203c-8.656 0-15.674 7.018-15.674 15.674v12.112c0 8.656 7.018 15.674 15.674 15.674s15.674-7.018 15.674-15.674v-12.112c0-8.656-7.018-15.674-15.674-15.674z" />
<glyph unicode="&#xe905;" d="M729.893 468.161c-6.478 13.050-19.904 22.046-35.464 22.046-5.53 0-10.794-1.138-15.574-3.186-6.288 13.564-19.986 22.992-35.922 22.992s-29.634-9.43-35.922-22.992c-4.78 2.048-10.042 3.186-15.574 3.186-15.56 0-28.988-8.994-35.464-22.046-60.714-11.282-106.694-64.494-106.694-128.476 0-72.19 58.522-130.714 130.716-130.714h125.872c72.194 0 130.716 58.524 130.716 130.714 0.002 63.986-45.98 117.194-106.69 128.476z" />
<glyph unicode="&#xe906;" d="M770.678 251.561h-125.872c-72.192 0-130.716 58.524-130.716 130.714 0 31.538 11.186 60.444 29.788 83.016-54.616-15.676-94.594-65.95-94.594-125.602 0-72.19 58.522-130.714 130.716-130.714h125.872c40.668 0 76.992 18.572 100.968 47.696-11.492-3.306-23.612-5.11-36.162-5.11z" />
<glyph unicode="&#xe907;" d="M601.075 427.441c-4.010 0-8.022 1.53-11.082 4.592l-7.136 7.134c-6.12 6.122-6.12 16.046 0 22.166s16.046 6.122 22.166 0l7.134-7.136c6.12-6.122 6.12-16.046 0-22.164-3.058-3.062-7.072-4.592-11.082-4.592z" />
<glyph unicode="&#xe908;" d="M686.881 428.399c-4.010 0-8.022 1.53-11.082 4.592-6.122 6.122-6.122 16.046 0 22.166l6.502 6.502c6.12 6.122 16.046 6.122 22.164 0 6.12-6.122 6.12-16.046 0-22.164l-6.502-6.502c-3.062-3.064-7.072-4.594-11.082-4.594z" />
<glyph unicode="&#xe909;" d="M644.113 435.015c-8.656 0-15.674 7.018-15.674 15.674v12.112c0 8.656 7.018 15.674 15.674 15.674s15.674-7.018 15.674-15.674v-12.112c0-8.656-7.018-15.674-15.674-15.674z" />
<glyph unicode="&#xe90a;" d="M884.388 265.405c0-12.694-10.292-22.986-22.988-22.986h-698.803c-12.696 0-22.986 10.292-22.986 22.986v41.378c0 12.696 10.292 22.986 22.986 22.986h698.803c12.696 0 22.988-10.29 22.988-22.986v-41.378z" />
<glyph unicode="&#xe90b;" d="M226.974 265.405v41.378c0 12.696 10.292 22.986 22.986 22.986h-87.364c-12.696 0-22.986-10.29-22.986-22.986v-41.378c0-12.694 10.292-22.986 22.986-22.986h87.366c-12.696 0-22.988 10.292-22.988 22.986z" />
<glyph unicode="&#xe90c;" d="M453.979 521.359h-52.692c-8.656 0-15.674 7.018-15.674 15.674s7.018 15.674 15.674 15.674h52.692c31.4 0 56.944 25.546 56.944 56.946 0 31.398-25.546 56.942-56.944 56.942h-54.064c-8.656 0-15.674 7.018-15.674 15.674s7.018 15.674 15.674 15.674h54.064c48.684 0 88.292-39.608 88.292-88.29-0.002-48.684-39.608-88.294-88.292-88.294z" />
<glyph unicode="&#xe90d;" d="M347.179 666.595h-63.428c-53.394 0-96.832 43.44-96.832 96.834s43.44 96.834 96.832 96.834h71.616c8.656 0 15.674-7.018 15.674-15.674s-7.018-15.674-15.674-15.674h-71.616c-36.11 0-65.486-29.378-65.486-65.488s29.378-65.488 65.486-65.488h63.428c8.656 0 15.674-7.018 15.674-15.674 0-8.652-7.018-15.67-15.674-15.67z" />
<glyph unicode="&#xe90e;" d="M695.557 797.060h-52.264c-8.656 0-15.674 7.018-15.674 15.674s7.018 15.674 15.674 15.674h52.264c27.638 0 50.124 22.486 50.124 50.124s-22.486 50.122-50.124 50.122h-45.396c-8.656 0-15.674 7.018-15.674 15.674s7.018 15.672 15.674 15.672h45.396c44.922 0 81.47-36.546 81.47-81.468s-36.548-81.472-81.47-81.472z" />
<glyph unicode="&#xe90f;" d="M509.861 728.842c-8.656 0-15.674 7.018-15.674 15.674v13.088c0 39.042 31.762 70.804 70.802 70.804h85.908c8.656 0 15.674-7.018 15.674-15.674s-7.018-15.674-15.674-15.674h-85.908c-21.756 0-39.456-17.7-39.456-39.458v-13.088c0-8.656-7.014-15.672-15.672-15.672z" />
<glyph unicode="&#xe910;" d="M929.212-25.34c0-12.696-10.292-22.986-22.988-22.986h-788.454c-12.696 0-22.986 10.292-22.986 22.986v271.247c0 12.694 10.292 22.986 22.986 22.986h788.454c12.696 0 22.988-10.292 22.988-22.986v-271.247z" />
<glyph unicode="&#xe911;" d="M181.81-25.34v271.247c0 12.694 10.292 22.986 22.986 22.986h-87.026c-12.696 0-22.986-10.292-22.986-22.986v-271.249c0-12.696 10.292-22.986 22.986-22.986h87.028c-12.696 0.002-22.988 10.294-22.988 22.988z" />
<glyph unicode="&#xe912;" d="M766.953 38.154h-72.27c-8.656 0-15.674-7.018-15.674-15.674s7.018-15.674 15.674-15.674h72.27c8.656 0 15.674 7.018 15.674 15.674s-7.018 15.674-15.674 15.674z" />
<glyph unicode="&#xe913;" d="M323.847 182.414h73.17c8.656 0 15.674 7.018 15.674 15.674s-7.018 15.674-15.674 15.674h-73.17c-8.656 0-15.674-7.018-15.674-15.674 0-8.658 7.018-15.674 15.674-15.674z" />
<glyph unicode="&#xe914;" d="M278.753 182.414c8.656 0 15.674 7.018 15.674 15.674s-7.018 15.674-15.674 15.674h-183.968v-31.346h183.968z" />
<glyph unicode="&#xe915;" d="M208.864 123.876c8.656 0 15.674 7.018 15.674 15.674s-7.018 15.674-15.674 15.674h-114.080v-31.346h114.080z" />
<glyph unicode="&#xe916;" d="M278.753 65.342c8.656 0 15.674 7.018 15.674 15.674s-7.018 15.674-15.674 15.674h-183.968v-31.346h183.968z" />
<glyph unicode="&#xe917;" d="M637.385 6.806c8.656 0 15.674 7.018 15.674 15.674s-7.018 15.674-15.674 15.674h-542.601v-31.346h542.601z" />
<glyph unicode="&#xe918;" d="M929.212 7.826v29.306c-1.72 0.648-3.576 1.020-5.524 1.020h-110.76c-8.656 0-15.674-7.018-15.674-15.674s7.018-15.674 15.674-15.674h110.76c1.948 0.002 3.804 0.374 5.524 1.022z" />
<glyph unicode="&#xe919;" d="M929.212 189.91c8.656 0 15.674 7.018 15.674 15.674v40.322c0 21.316-17.344 38.66-38.662 38.66h-6.164v22.216c0 21.318-17.344 38.66-38.662 38.66h-9.264c-2.556 65.604-48.588 121.514-112.288 136.628-10.238 14.858-27.010 23.81-45.42 23.81-2.904 0-5.778-0.222-8.608-0.666-10.362 12.734-26.090 20.472-42.886 20.472-16.798 0-32.526-7.738-42.886-20.472-2.83 0.444-5.7 0.666-8.606 0.666-18.408 0-35.182-8.95-45.42-23.81-28.322-6.72-53.144-21.516-72.214-41.632-10.248 14.75-26.956 23.632-45.288 23.632-2.904 0-5.778-0.222-8.608-0.666-10.362 12.734-26.090 20.472-42.886 20.472s-32.526-7.74-42.886-20.472c-2.83 0.444-5.7 0.666-8.606 0.666-18.41 0-35.184-8.95-45.42-23.81-49.596-11.766-88.466-48.27-104.46-94.818h-13.050c-21.318 0-38.66-17.344-38.66-38.66v-22.216h-6.164c-21.318 0-38.66-17.344-38.66-38.66v-271.249c0-21.318 17.344-38.66 38.66-38.66h788.454c21.318 0 38.662 17.344 38.662 38.66v164.052c0 8.656-7.018 15.674-15.674 15.674s-15.674-7.018-15.674-15.674v-164.052c0-4.034-3.28-7.312-7.314-7.312h-788.46c-4.034 0-7.314 3.282-7.314 7.312v271.249c0 4.032 3.28 7.312 7.314 7.312h788.454c4.034 0 7.314-3.282 7.314-7.312v-40.322c0-8.656 7.018-15.674 15.674-15.674zM558.841 452.753c4.844 0.9 8.984 4.028 11.176 8.442 4.084 8.23 12.292 13.34 21.424 13.34 3.262 0 6.424-0.646 9.4-1.92 7.792-3.338 16.828 0.124 20.392 7.816 3.918 8.452 12.434 13.912 21.7 13.912s17.784-5.46 21.7-13.912c3.568-7.692 12.604-11.152 20.392-7.816 2.976 1.274 6.14 1.92 9.402 1.92 9.132 0 17.342-5.112 21.424-13.342 2.192-4.414 6.33-7.54 11.176-8.44 52.506-9.76 91.104-54.398 93.732-107.308h-355.651c2.624 52.91 41.226 97.548 93.732 107.308zM868.714 284.567h-713.431v22.216c0 4.034 3.28 7.312 7.312 7.312h65.192c8.656 0 15.674 7.018 15.674 15.674s-7.018 15.674-15.674 15.674h-18.426c15.134 33.308 45.728 58.466 83.566 65.498 4.846 0.9 8.986 4.028 11.176 8.442 4.084 8.23 12.292 13.34 21.424 13.34 3.262 0 6.426-0.646 9.402-1.92 7.79-3.338 16.828 0.124 20.392 7.816 3.916 8.452 12.434 13.912 21.7 13.912s17.782-5.46 21.7-13.912c3.566-7.69 12.598-11.154 20.39-7.816 2.978 1.274 6.142 1.92 9.404 1.92 9.13 0 17.342-5.112 21.426-13.342 0.996-2.010 2.414-3.734 4.102-5.122-12.094-20.412-19.344-43.908-20.312-68.816h-130.714c-8.656 0-15.674-7.018-15.674-15.674s7.018-15.674 15.674-15.674h558.381c4.034 0 7.314-3.282 7.314-7.312v-22.216z" />
<glyph unicode="&#xe91a;" d="M821.384-10.815c0-29.373-119.058-53.185-265.923-53.185s-265.923 23.812-265.923 53.185c0 29.373 119.058 53.185 265.923 53.185s265.923-23.812 265.923-53.185z" />
<glyph unicode="&#xe91b;" d="M644.102-10.815c0-19.582-79.372-35.456-177.282-35.456s-177.282 15.874-177.282 35.456c0 19.582 79.372 35.456 177.282 35.456s177.282-15.874 177.282-35.456z" />
<glyph unicode="&#xe91c;" d="M859.234 382.787c0 54.514-183.097 98.711-408.955 98.711s-408.937-44.179-408.937-98.711c0-0.798 0-2.393 0-2.393 0-225.858 183.097-408.955 408.955-408.955s408.955 183.097 408.955 408.955c-0.018 0.018-0.018 1.596-0.018 2.393z" />
<glyph unicode="&#xe91d;" d="M255.797 853.722l726.882-70.914-3.443-35.29-726.882 70.914 3.443 35.29z" />
<glyph unicode="&#xe91e;" d="M313.683 538.777c-15.565 12.906-24.146 30.333-24.146 49.107s8.563 36.201 24.146 49.107c7.304 6.063 11.311 13.793 11.311 21.806s-4.024 15.76-11.311 21.806c-15.565 12.906-24.146 30.333-24.146 49.107s8.563 36.201 24.146 49.107c7.304 6.063 11.311 13.793 11.311 21.806s-4.024 15.76-11.311 21.806c-15.565 12.906-24.146 30.333-24.146 49.107s8.563 36.201 24.146 49.107l22.621-27.301c-7.304-6.063-11.311-13.793-11.311-21.806s4.024-15.76 11.311-21.806c15.565-12.906 24.146-30.333 24.146-49.107s-8.563-36.201-24.146-49.107c-7.304-6.063-11.311-13.793-11.311-21.806s4.024-15.76 11.311-21.806c15.565-12.906 24.146-30.333 24.146-49.107s-8.563-36.201-24.146-49.107c-7.304-6.063-11.311-13.793-11.311-21.806s4.024-15.76 11.311-21.806l-22.621-27.301z" />
<glyph unicode="&#xe91f;" d="M384.596 538.777c-15.565 12.906-24.146 30.333-24.146 49.107s8.563 36.201 24.146 49.107c7.304 6.063 11.311 13.793 11.311 21.806s-4.024 15.76-11.311 21.806c-15.565 12.906-24.146 30.333-24.146 49.107s8.563 36.201 24.146 49.107c7.304 6.063 11.311 13.793 11.311 21.806s-4.024 15.76-11.311 21.806c-15.565 12.906-24.146 30.333-24.146 49.107s8.563 36.201 24.146 49.107l22.621-27.301c-7.304-6.063-11.311-13.793-11.311-21.806s4.024-15.76 11.311-21.806c15.565-12.906 24.146-30.333 24.146-49.107s-8.563-36.201-24.146-49.107c-7.304-6.063-11.311-13.793-11.311-21.806s4.024-15.76 11.311-21.806c15.565-12.906 24.146-30.333 24.146-49.107s-8.563-36.201-24.146-49.107c-7.304-6.063-11.311-13.793-11.311-21.806s4.024-15.76 11.311-21.806l-22.621-27.301z" />
<glyph unicode="&#xe920;" d="M455.509 538.777c-15.565 12.906-24.146 30.333-24.146 49.107s8.563 36.201 24.146 49.107c7.304 6.063 11.311 13.793 11.311 21.806s-4.024 15.76-11.311 21.806c-15.565 12.906-24.146 30.333-24.146 49.107s8.563 36.201 24.146 49.107c7.304 6.063 11.311 13.793 11.311 21.806s-4.024 15.76-11.311 21.806c-15.565 12.906-24.146 30.333-24.146 49.107s8.563 36.201 24.146 49.107l22.621-27.301c-7.304-6.063-11.311-13.793-11.311-21.806s4.024-15.76 11.311-21.806c15.565-12.906 24.146-30.333 24.146-49.107s-8.563-36.201-24.146-49.107c-7.304-6.063-11.311-13.793-11.311-21.806s4.024-15.76 11.311-21.806c15.565-12.906 24.146-30.333 24.146-49.107s-8.563-36.201-24.146-49.107c-7.304-6.063-11.311-13.793-11.311-21.806s4.024-15.76 11.311-21.806l-22.621-27.301z" />
<glyph unicode="&#xe921;" d="M526.422 538.777c-15.565 12.906-24.146 30.333-24.146 49.107s8.563 36.201 24.146 49.107c7.304 6.063 11.311 13.793 11.311 21.806s-4.024 15.76-11.311 21.806c-15.565 12.906-24.146 30.333-24.146 49.107s8.563 36.201 24.146 49.107c7.304 6.063 11.311 13.793 11.311 21.806s-4.024 15.76-11.311 21.806c-15.565 12.906-24.146 30.333-24.146 49.107s8.563 36.201 24.146 49.107l22.621-27.301c-7.304-6.063-11.311-13.793-11.311-21.806s4.024-15.76 11.311-21.806c15.565-12.906 24.146-30.333 24.146-49.107s-8.563-36.201-24.146-49.107c-7.304-6.063-11.311-13.793-11.311-21.806s4.024-15.76 11.311-21.806c15.565-12.906 24.146-30.333 24.146-49.107s-8.563-36.201-24.146-49.107c-7.304-6.063-11.311-13.793-11.311-21.806s4.024-15.76 11.311-21.806l-22.621-27.301z" />
<glyph unicode="&#xe922;" d="M859.234 382.804c0-54.516-183.095-98.711-408.955-98.711s-408.955 44.194-408.955 98.711c0 54.516 183.095 98.711 408.955 98.711s408.955-44.194 408.955-98.711z" />
<glyph unicode="&#xe923;" d="M612.723 314.71c-12.108 14.608-31.521 14.608-43.629 0l-27.284 22.639c12.906 15.565 30.333 24.128 49.107 24.128s36.201-8.563 49.107-24.128l-27.301-22.639z" />
<glyph unicode="&#xe924;" d="M719.092 332.439c-12.108 14.608-31.521 14.608-43.629 0l-27.284 22.639c12.906 15.565 30.333 24.128 49.107 24.128s36.201-8.563 49.107-24.128l-27.301-22.639z" />
<glyph unicode="&#xe925;" d="M790.005 367.895c-12.108 14.608-31.521 14.608-43.629 0l-27.284 22.639c12.906 15.565 30.333 24.128 49.107 24.128s36.201-8.563 49.107-24.128l-27.301-22.639z" />
<glyph unicode="&#xe926;" d="M683.636 385.623c-12.108 14.608-31.521 14.608-43.629 0l-27.284 22.639c12.906 15.565 30.333 24.128 49.107 24.128s36.201-8.563 49.107-24.128l-27.301-22.639z" />
<glyph unicode="&#xe927;" d="M577.266 367.895c-12.108 14.608-31.521 14.608-43.629 0l-27.284 22.639c12.906 15.565 30.333 24.128 49.107 24.128s36.201-8.563 49.107-24.128l-27.301-22.639z" />
<glyph unicode="&#xe928;" d="M577.266 421.080c-12.108 14.608-31.521 14.608-43.629 0l-27.284 22.639c12.906 15.565 30.333 24.128 49.107 24.128s36.201-8.563 49.107-24.128l-27.301-22.639z" />
<glyph unicode="&#xe929;" d="M470.897 385.623c-12.108 14.608-31.521 14.608-43.629 0l-27.284 22.639c12.906 15.565 30.333 24.128 49.107 24.128s36.201-8.563 49.107-24.128l-27.301-22.639z" />
<glyph unicode="&#xe92a;" d="M488.625 314.71c-12.108 14.608-31.521 14.608-43.629 0l-27.284 22.639c12.906 15.565 30.333 24.128 49.107 24.128s36.201-8.563 49.107-24.128l-27.301-22.639z" />
<glyph unicode="&#xe92b;" d="M382.256 314.71c-12.108 14.608-31.521 14.608-43.629 0l-27.284 22.639c12.906 15.565 30.333 24.128 49.107 24.128s36.201-8.563 49.107-24.128l-27.301-22.639z" />
<glyph unicode="&#xe92c;" d="M169.517 332.439c-12.108 14.608-31.521 14.608-43.629 0l-27.284 22.639c12.906 15.565 30.333 24.128 49.107 24.128s36.201-8.563 49.107-24.128l-27.301-22.639z" />
<glyph unicode="&#xe92d;" d="M293.615 332.439c-12.108 14.608-31.521 14.608-43.629 0l-27.284 22.639c12.906 15.565 30.333 24.128 49.107 24.128s36.201-8.563 49.107-24.128l-27.301-22.639z" />
<glyph unicode="&#xe92e;" d="M346.8 385.623c-12.108 14.608-31.521 14.608-43.629 0l-27.284 22.639c12.906 15.565 30.333 24.128 49.107 24.128s36.201-8.563 49.107-24.128l-27.301-22.639z" />
<glyph unicode="&#xe92f;" d="M204.974 385.623c-12.108 14.608-31.521 14.608-43.629 0l-27.284 22.639c12.906 15.565 30.333 24.128 49.107 24.128s36.201-8.563 49.107-24.128l-27.301-22.639z" />
<glyph unicode="&#xe930;" d="M960.749 960.004l4.9-35.116-762.317-106.373-4.9 35.116 762.317 106.373z" />
<glyph unicode="&#xe931;" d="M330.17 34.923c-167.354 25.883-200.329 237.913-200.329 237.913 50.791-25.706 93.835-49.054 109.88-87.826 57.174-2.978 87.347-21.38 77.721-75.93 154.023-36.307 148.527-64.531 105.359-86.141-27.479 2.677-92.63 11.984-92.63 11.984z" />
<glyph unicode="&#xe932;" d="M401.152 103.726c53.034 0 96.026 44.044 96.026 96.476h-112.028c-53.034 0-96.026-43.442-96.026-96.476s42.992-96.476 96.026-96.476h112.030c-0.002 52.432-42.994 96.476-96.028 96.476z" />
<glyph unicode="&#xe933;" d="M337.136 103.726c0 53.034 42.992 96.476 96.026 96.476h-48.012c-53.034 0-96.026-43.442-96.026-96.476s42.992-96.476 96.026-96.476h48.014c-53.036 0-96.028 43.444-96.028 96.476z" />
<glyph unicode="&#xe934;" d="M1023.998 648.056h-728.144c-153.168 0-283.126-125.348-280.072-278.486 2.946-147.716 123.604-265.66 272.018-265.66v0c-82.724 0-149.16 69.736-143.728 153.628 4.956 76.558 71.944 134.452 148.662 134.452h379.17c44.194 0 80.020 35.826 80.020 80.020v0h16.004z" />
<glyph unicode="&#xe935;" d="M148.16 212.55c-59.946 48.562-98.72 122.094-100.372 205.032-0.922 46.21 10.438 89.796 30.722 128.266-40.102-48.106-64.058-109.542-62.726-176.276 2.944-147.72 123.602-265.664 272.016-265.664-67.336-0.002-123.862 46.208-139.64 108.642z" />
<glyph unicode="&#xe936;" d="M703.91 441.392h-379.17c-61.786 0-117.202-38.746-139.046-93.356 27.492 27.356 65.808 43.020 107.038 43.020h379.168c38.248 0 70.126 28.038 78.038 63.908-13.032-9.208-28.852-13.572-46.028-13.572z" />
<glyph unicode="&#xe937;" d="M143.946 247.216c-19.62 36.558-31.258 77.502-32.142 121.79-3.054 153.14 126.904 277.924 280.072 277.924h-96.024c-153.168 0-283.126-124.786-280.072-277.924 2.948-147.718 123.606-265.378 272.020-265.378-79.294-0.002-143.438 64.394-143.854 143.588z" />
<glyph unicode="&#xe938;" d="M543.874 648.046h32.010v-176.048h-32.010v176.048z" />
<glyph unicode="&#xe939;" d="M399.83 648.046h32.010v-176.048h-32.010v176.048z" />
<glyph unicode="&#xe93a;" d="M271.794 472.008l-32.008-16.006-48.012 166.406 32.008 9.642z" />
<glyph unicode="&#xe93b;" d="M655.408 579.822h33.556v-31.46h-33.556v31.46z" />
<glyph unicode="&#xe93c;" d="M798.026 615.476h211.828v-31.46h-211.828v31.46z" />
<glyph unicode="&#xe93d;" d="M768.662 565.14h190.854v-31.46h-190.854v31.46z" />
<glyph unicode="&#xe93e;" d="M874.398 485.436h34.784v31.46h-190.854v-31.46h81.068c49.708-4.814 86.836-46.072 86.836-96.1 0-53.404-42.906-96.852-96.006-96.852h-48.014c-35.148 0-64.15-28.348-64.15-63.192 0-34.842 29.778-63.19 63.334-63.19v31.46c-16.778 0-31.874 13.938-31.874 31.73s14.586 31.732 32.69 31.732h48.014c70.448 0 127.466 57.56 127.466 128.312 0 38.254-16.682 72.618-43.294 96.1z" />
<glyph unicode="&#xe93f;" d="M286.282 472.858h65.016v-31.46h-65.016v31.46z" />
<glyph unicode="&#xe940;" d="M558.932 426.712v205.614h465.068v31.46h-146.378c0.846 0.82 1.698 1.626 2.524 2.474 21.226 21.874 32.414 50.73 31.5 81.248-1.794 59.734-53.708 108.33-115.732 108.33h-148.016c-4.564 0-8.276 3.714-8.276 8.276s3.714 8.276 8.276 8.276h40.010v31.46h-40.010c-21.91 0-39.736-17.826-39.736-39.736s17.826-39.736 39.736-39.736h148.016c45.186 0 82.996-34.908 84.284-77.814 0.658-21.94-7.378-42.68-22.628-58.396-15.258-15.724-35.726-24.384-57.632-24.384h-504.086c-79.494 0-157.266-32.828-213.376-90.066-54.666-55.77-83.938-128.382-82.42-204.464 1.508-75.606 32.116-146.336 86.194-199.162 50.638-49.468 116.628-78.12 187.142-81.56v-0.352h1.128c7.67-54.198 54.344-96.028 110.626-96.028h127.762v15.73c0 40.778-21.964 76.508-54.67 96.028 32.708 19.518 54.67 55.25 54.67 96.026v15.73h-127.762c-56.052 0-102.56-41.492-110.518-95.366-30.772 3.090-58.968 16.988-80.464 39.922-24.51 26.148-36.726 60.348-34.396 96.3 4.346 67.144 62.752 119.738 132.962 119.738h379.17c52.798 0 95.75 42.952 95.75 95.75h-31.46c0-35.45-28.84-64.29-64.29-64.29h-255.584v125.96h31.46v31.46h-31.46v67.192h111.158v-115.43h-48.238v-31.46h48.238v-58.724l31.46-0.006zM385.148 184.204h94.756c-7.334-36.768-39.858-64.566-78.75-64.566h-55.244l31.326 18.794-16.184 26.976-49.662-29.798c12.318 28.552 40.74 48.594 73.758 48.594zM361.052 42.408l16.184 26.976-31.326 18.796h55.246c38.892 0 71.416-27.798 78.75-64.568h-94.756c-33.020 0-61.438 20.042-73.758 48.592l49.66-29.796zM31.508 369.88c-0.484 24.282 2.592 48.174 8.972 71.132l65.032-65.032-28.888-28.888 22.246-22.244 28.886 28.886 23.626-23.626c-12.692-20.46-20.764-43.922-22.798-69.086h-70.37c-16.718 33.438-25.938 70.436-26.706 108.858zM108.232 192.596c-11.706 11.434-22.162 23.818-31.326 36.97h52.16c3.070-27.186 12.988-52.856 29.1-75.072-17.958 10.492-34.724 23.242-49.934 38.102zM170.714 355.27l-44.718 44.716 20.884 20.886-22.246 22.246-20.884-20.886-51.614 51.614c12.382 28.372 30.14 54.722 52.808 77.848 22.444 22.896 48.756 41.412 77.336 54.91l8.804-33.020-26.438-26.438 22.246-22.244 13.556 13.56 37.306-139.904c-25.892-8.904-48.876-23.926-67.040-43.288zM384.856 600.788h-48.238v-31.46h48.238v-161.614h-92.122c-8.278 0-16.42-0.606-24.388-1.758l-9.448 35.436h12.706v31.46h-21.094l-38.826 145.6c27.030 9.080 55.476 13.872 84.174 13.872h89v-31.536z" />
<glyph unicode="&#xe941;" d="M814.689 712.793c0 17.955-10.16 33.402-25.029 41.631 7.038 14.364 11.098 30.389 11.098 47.388 0 60.507-49.932 109.555-111.522 109.555-16.097 0-31.363-3.411-45.186-9.456-16.476 22.286-43.129 36.849-73.301 36.849-34.196 0-63.936-18.623-79.365-46.089-16.999 11.748-37.679 18.695-60.038 18.695-57.746 0-104.556-45.98-104.556-102.716 0-4.241 0.343-8.409 0.848-12.506-41.036-13.877-70.558-52.026-70.558-97.049 0-35.117 17.955-66.083 45.313-84.598-10.918-14.707-17.432-32.753-17.432-52.35 0-49.156 40.567-89.019 90.607-89.019 20.951 0 40.17 7.056 55.526 18.767 20.211-27.899 53.325-46.161 90.86-46.161 39.664 0 74.402 20.41 94.18 51.051 13.3-22.322 37.914-37.354 66.137-37.354 42.353 0 76.676 33.727 76.676 75.323 0 9.33-1.805 18.226-4.963 26.473 27.502 11.441 46.792 38.203 46.792 69.385 0 14.761-4.385 28.512-11.874 40.134 15.267 8.102 25.787 23.784 25.787 42.046z" />
<glyph unicode="&#xe942;" d="M412.018 481.015c-11.188-4.89-23.423-7.886-36.47-7.886-50.041 0-90.607 39.863-90.607 89.019 0 19.598 6.514 37.643 17.432 52.35-27.357 18.515-45.313 49.481-45.313 84.598 0 16.999 4.241 33.024 11.694 47.117-29.902 17.775-69.259 14.184-95.082-11.17-2.274-2.238-4.313-4.602-6.244-7.020-28.999 13.895-64.946 9.077-89.037-14.581-18.786-18.461-25.914-44.013-21.456-67.888-13.624-2.075-26.708-8.211-37.192-18.515-26.311-25.841-26.311-67.761 0-93.603 11.008-10.827 24.903-17.053 39.249-18.804-4.313-25.12 3.338-51.827 23.062-71.208 20.861-20.482 50.041-27.7 76.838-21.799-4.945-18.605-0.054-39.213 14.779-53.812 22.268-21.871 58.36-21.871 80.628 0 4.999 4.908 8.806 10.521 11.567 16.494 20.59-8.193 45.042-4.078 61.734 12.307 7.904 7.76 12.939 17.252 15.231 27.231 12.379-3.645 26.293-0.83 36.073 8.77 9.6 9.438 12.542 22.81 9.113 34.81 8.608 2.978 16.566 7.796 24.001 13.588z" />
<glyph unicode="&#xe943;" d="M1001.244 612.639c-2.274 2.238-4.674 4.241-7.146 6.136 14.148 28.494 9.239 63.809-14.852 87.467-18.786 18.461-44.807 25.462-69.115 21.077-2.129 13.372-8.355 26.238-18.84 36.524-26.311 25.859-68.97 25.859-95.299 0-1.714-1.696-3.14-3.573-4.62-5.396-0.596-1.335-1.083-2.743-1.714-4.042 14.87-8.211 25.029-23.676 25.029-41.631 0-18.262-10.521-33.944-25.805-42.028 7.471-11.621 11.874-25.354 11.874-40.134 0-31.183-19.291-57.945-46.792-69.385 3.158-8.247 4.963-17.143 4.963-26.473 0-41.595-34.323-75.323-76.676-75.323-9.907 0-19.327 1.949-28.025 5.323 0.938-1.065 1.48-2.328 2.49-3.32 7.904-7.76 17.558-12.722 27.718-14.978-3.717-12.163-0.848-25.841 8.933-35.442 9.6-9.438 23.225-12.325 35.442-8.951 3.988-11.188 10.43-21.709 19.543-30.642 32.392-31.814 84.887-31.814 117.279 0 8.463 8.319 14.653 17.992 18.695 28.314 20.59-3.212 42.389 2.905 58.269 18.497 17.973 17.667 23.658 42.822 17.071 65.235 15.212 2.599 29.811 9.618 41.577 21.186 30.353 29.811 30.353 78.156 0 107.985z" />
<glyph unicode="&#xe944;" d="M728.809 402.065c-12.217-3.356-25.823-0.487-35.442 8.951-5.72 5.612-9.077 12.632-10.124 19.922-0.596 4.060-1.967 7.976-4.006 11.459-70.703-72.977-120.094-207.417-120.094-207.417 23.477 83.479 19.778 166.778 12.506 222.34-14.96-7.381-31.833-11.585-49.734-11.585-17.432 0-33.836 4.078-48.507 11.098 31.598-111.721 13.552-294.036 13.552-294.036-33.818 135.252-108.166 219.814-143.3 253.686-2.508-1.967-4.764-4.241-6.352-7.092-2.526-4.584-5.775-8.897-9.727-12.794-16.692-16.403-41.162-20.5-61.734-12.307-2.761-5.973-6.569-11.585-11.567-16.494-5.955-5.847-12.939-10.015-20.337-12.74 90.607 0 194.532-180.348 207.94-372.733 0.993-14.148 12.848-25.12 27.032-25.12h90.228c13.895 0 25.48 10.412 27.050 24.199 8.283 73.193 33.854 379.175 175.873 379.175-4.854 3.086-9.474 6.641-13.733 10.809-9.077 8.969-15.537 19.489-19.525 30.678z" />
<glyph unicode="&#xe945;" d="M423.495 686.121c-2.184 0-4.403 0.397-6.569 1.245-45.421 17.757-67.942 69.169-50.185 114.59 17.757 45.403 69.079 67.924 114.608 50.203 9.275-3.627 13.877-14.094 10.232-23.369-3.627-9.294-14.058-13.859-23.387-10.25-26.906 10.521-57.331-2.815-67.834-29.703-10.521-26.906 2.815-57.331 29.703-67.834 9.275-3.627 13.877-14.094 10.232-23.369-2.779-7.164-9.6-11.513-16.8-11.513z" />
<glyph unicode="&#xe946;" d="M885.752 497.183c-10.9 0-21.781 2.039-32.23 6.117-21.998 8.608-39.34 25.246-48.813 46.901-4.006 9.131 0.162 19.778 9.294 23.766 9.203 4.006 19.796-0.18 23.766-9.294 5.612-12.812 15.88-22.665 28.909-27.772 13.047-5.089 27.267-4.782 40.079 0.812 12.812 5.612 22.665 15.88 27.754 28.909s4.818 27.249-0.812 40.061c-4.006 9.131 0.162 19.778 9.294 23.766 9.185 3.988 19.778-0.162 23.766-9.294 9.474-21.637 9.979-45.674 1.371-67.689s-25.246-39.358-46.901-48.832c-11.387-4.945-23.423-7.453-35.478-7.453z" />
<glyph unicode="&#xe947;" d="M638.653 541.792c-30.876 0-60.904 16.169-77.145 44.916-4.908 8.68-1.859 19.688 6.821 24.596 8.644 4.908 19.688 1.859 24.578-6.821 6.893-12.181 18.1-20.951 31.58-24.704 13.444-3.717 27.592-2.003 39.773 4.872s20.951 18.082 24.704 31.58c3.735 13.48 2.003 27.61-4.872 39.773-4.908 8.68-1.859 19.688 6.821 24.596 8.644 4.89 19.688 1.859 24.578-6.821 11.639-20.572 14.563-44.428 8.229-67.202s-21.149-41.703-41.722-53.325c-13.697-7.778-28.62-11.459-43.346-11.459z" />
<glyph unicode="&#xe948;" d="M575.313 639.185c-12.921 0-26.004 2.833-38.401 8.824-43.905 21.258-62.33 74.258-41.090 118.163 4.349 8.951 15.104 12.722 24.109 8.391 8.969-4.349 12.722-15.14 8.391-24.109-12.578-25.986-1.678-57.367 24.326-69.945 25.986-12.542 57.367-1.678 69.945 24.326 4.331 8.951 15.086 12.74 24.109 8.391 8.969-4.349 12.722-15.14 8.391-24.109-15.285-31.544-46.919-49.932-79.78-49.932z" />
<glyph unicode="&#xe949;" d="M438.13 537.894c-12.036 0-24.055 2.49-35.406 7.453-44.681 19.543-65.145 71.786-45.619 116.485 3.988 9.095 14.545 13.3 23.748 9.312 9.131-3.988 13.3-14.635 9.312-23.766-11.549-26.455 0.559-57.403 27.014-68.952 12.848-5.612 27.068-5.883 40.079-0.776 13.029 5.107 23.279 14.96 28.891 27.79 3.988 9.095 14.563 13.282 23.748 9.312 9.131-3.988 13.3-14.635 9.312-23.766-9.438-21.655-26.762-38.329-48.777-46.937-10.466-4.114-21.384-6.154-32.302-6.154z" />
<glyph unicode="&#xe94a;" d="M638.888 734.808c-2.851 0-5.72 0.126-8.608 0.397-23.532 2.256-44.753 13.534-59.785 31.76-6.352 7.687-5.251 19.056 2.436 25.408 7.724 6.37 19.074 5.233 25.408-2.436 8.897-10.791 21.456-17.468 35.388-18.804 14.112-1.426 27.556 2.851 38.329 11.73 22.268 18.37 25.444 51.448 7.074 73.716-6.352 7.687-5.251 19.056 2.436 25.408 7.724 6.37 19.074 5.233 25.408-2.436 31.039-37.607 25.679-93.476-11.928-124.515-16.025-13.191-35.694-20.229-56.158-20.229z" />
<glyph unicode="&#xe94b;" d="M178.327 517.052c-11.062 0-22.286 2.075-33.15 6.478-45.186 18.334-67.040 70.017-48.705 115.221 3.735 9.239 14.256 13.661 23.513 9.943 9.239-3.753 13.679-14.274 9.943-23.513-10.863-26.744 2.075-57.349 28.837-68.213 26.816-10.9 57.385 2.075 68.213 28.837 3.753 9.257 14.31 13.679 23.513 9.943 9.239-3.753 13.697-14.274 9.943-23.513-13.967-34.323-47.135-55.184-82.108-55.184z" />
</font>
</defs>
</svg>
